<?xml version="1.0" encoding="UTF-8"?>
<svg width="512" height="512" viewBox="0 0 256 256" xmlns="http://www.w3.org/2000/svg">
  <g fill="none" stroke="#ffffff" stroke-width="10" stroke-linejoin="round" stroke-linecap="round">
    <path d="M30 88 Q48 40 96 36 L160 36 Q208 40 226 88 L206 118 Q188 146 128 146 Q68 146 50 118 Z"/>
    <rect x="68" y="66" rx="18" ry="18" width="120" height="56"/>
    <ellipse cx="104" cy="94" rx="16" ry="12"/>
    <ellipse cx="152" cy="94" rx="16" ry="12"/>
    <path d="M64 154 Q96 174 128 174 Q160 174 192 154 L206 190 Q170 216 128 216 Q86 216 50 190 Z"/>
    <circle cx="128" cy="28" r="6" fill="#ffffff" stroke="#ffffff"/>
    <path d="M128 28 L128 38"/>
  </g>
</svg>
