<?xml version="1.0" encoding="UTF-8"?>
<svg width="512" height="512" viewBox="0 0 256 256" xmlns="http://www.w3.org/2000/svg">
  <defs>
    <linearGradient id="g1" x1="0" y1="0" x2="1" y2="1">
      <stop offset="0" stop-color="#3be7ff"/>
      <stop offset="1" stop-color="#7a3bff"/>
    </linearGradient>
    <linearGradient id="g2" x1="0" y1="0" x2="0" y2="1">
      <stop offset="0" stop-color="#ffffff" stop-opacity="0.9"/>
      <stop offset="1" stop-color="#ffffff" stop-opacity="0.5"/>
    </linearGradient>
    <filter id="soft" x="-20%" y="-20%" width="140%" height="140%">
      <feGaussianBlur in="SourceAlpha" stdDeviation="2"/>
      <feOffset dy="2" />
      <feMerge>
        <feMergeNode/>
        <feMergeNode in="SourceGraphic"/>
      </feMerge>
    </filter>
  </defs>
  <g filter="url(#soft)">
    <path d="M30 88 Q48 40 96 36 L160 36 Q208 40 226 88 L206 118 Q188 146 128 146 Q68 146 50 118 Z" fill="url(#g1)"/>
    <rect x="68" y="66" rx="18" ry="18" width="120" height="56" fill="#0c0f1a"/>
    <ellipse cx="104" cy="94" rx="16" ry="12" fill="none" stroke="#6cf" stroke-width="4"/>
    <ellipse cx="152" cy="94" rx="16" ry="12" fill="none" stroke="#6cf" stroke-width="4"/>
  </g>
  <g filter="url(#soft)">
    <path d="M64 154 Q96 174 128 174 Q160 174 192 154 L206 190 Q170 216 128 216 Q86 216 50 190 Z" fill="url(#g2)"/>
  </g>
  <circle cx="128" cy="28" r="6" fill="url(#g1)"/>
  <path d="M128 28 L128 38" stroke="url(#g1)" stroke-width="4" stroke-linecap="round"/>
</svg>
